<?xml version="1.0" standalone="no"?><!DOCTYPE svg PUBLIC "-//W3C//DTD SVG 1.1//EN" "http://www.w3.org/Graphics/SVG/1.1/DTD/svg11.dtd"><svg t="1531983860987" class="icon" style="" viewBox="0 0 1024 1024" version="1.1" xmlns="http://www.w3.org/2000/svg" p-id="1058" xmlns:xlink="http://www.w3.org/1999/xlink" width="48" height="48"><defs><style type="text/css"></style></defs><path d="M892.517 803H132.05c-37.311 0-67.838-30.527-67.838-67.838v-91.715c0-37.311 30.527-67.838 67.838-67.838h760.467c37.311 0 67.838 30.527 67.838 67.838v91.715c0 37.311-30.527 67.838-67.838 67.838z" fill="#FFFFFF" p-id="1059"></path><path d="M892.517 828H132.05c-51.191 0-92.838-41.646-92.838-92.838v-91.715c0-51.191 41.647-92.838 92.838-92.838h760.467c51.191 0 92.838 41.646 92.838 92.838v91.715c0 51.192-41.647 92.838-92.838 92.838zM132.05 600.609c-23.621 0-42.838 19.217-42.838 42.838v91.715c0 23.621 19.217 42.838 42.838 42.838h760.467c23.621 0 42.838-19.217 42.838-42.838v-91.715c0-23.621-19.217-42.838-42.838-42.838H132.05z" fill="#5F56FF" p-id="1060"></path><path d="M937.228 796.011H174.36c-16.581 0-30.148-13.566-30.148-30.148V665.514c0-16.581 13.566-30.148 30.148-30.148h762.868c16.581 0 30.148 13.566 30.148 30.148v100.349c-0.001 16.581-13.567 30.148-30.148 30.148z" fill="#75E6FF" p-id="1061"></path><path d="M892.517 828H132.05c-51.191 0-92.838-41.646-92.838-92.838v-91.715c0-51.191 41.647-92.838 92.838-92.838h760.467c51.191 0 92.838 41.646 92.838 92.838v91.715c0 51.192-41.647 92.838-92.838 92.838zM132.05 600.609c-23.621 0-42.838 19.217-42.838 42.838v91.715c0 23.621 19.217 42.838 42.838 42.838h760.467c23.621 0 42.838-19.217 42.838-42.838v-91.715c0-23.621-19.217-42.838-42.838-42.838H132.05zM321.283 887.757h-75.367c-13.75 0-25-11.25-25-25s11.25-25 25-25h75.367c13.75 0 25 11.25 25 25s-11.25 25-25 25zM703.284 887.757h75.367c13.75 0 25-11.25 25-25s-11.25-25-25-25h-75.367c-13.75 0-25 11.25-25 25s11.25 25 25 25z" fill="#5F56FF" p-id="1062"></path><path d="M730.234 689.305m-15 0a15 15 0 1 0 30 0 15 15 0 1 0-30 0Z" fill="#5F56FF" p-id="1063"></path><path d="M779.178 689.305m-15 0a15 15 0 1 0 30 0 15 15 0 1 0-30 0Z" fill="#5F56FF" p-id="1064"></path><path d="M828.123 689.305m-15 0a15 15 0 1 0 30 0 15 15 0 1 0-30 0Z" fill="#5F56FF" p-id="1065"></path><path d="M877.067 689.305m-15 0a15 15 0 1 0 30 0 15 15 0 1 0-30 0Z" fill="#5F56FF" p-id="1066"></path><path d="M273.741 588.175c-13.481 2.985-26.829-5.523-29.814-19.003l-78.78-355.728c-2.985-13.48 5.523-26.829 19.003-29.814 13.48-2.985 26.829 5.523 29.814 19.003l78.78 355.728c2.986 13.48-5.522 26.829-19.003 29.814zM748.925 588.175c13.481 2.985 26.829-5.523 29.814-19.003l78.78-355.728c2.985-13.48-5.523-26.829-19.003-29.814-13.48-2.985-26.829 5.523-29.814 19.003l-78.78 355.728c-2.985 13.48 5.523 26.829 19.003 29.814zM590.436 289.641c-8.705 0.001-17.16-4.551-21.764-12.662-12.149-21.4-34.957-34.694-59.525-34.694-24.567 0-47.376 13.294-59.525 34.694-6.817 12.008-22.076 16.214-34.083 9.399-12.007-6.816-16.215-22.076-9.399-34.083 21.014-37.017 60.483-60.011 103.007-60.011 42.524 0 81.994 22.995 103.007 60.011 6.816 12.007 2.608 27.267-9.399 34.083a24.89 24.89 0 0 1-12.319 3.263z" fill="#5F56FF" p-id="1067"></path><path d="M658.177 221.892c-7.521 0-14.955-3.379-19.877-9.814-31.053-40.605-78.127-63.895-129.153-63.895s-98.101 23.289-129.153 63.895c-8.387 10.969-24.078 13.06-35.045 4.672-10.968-8.387-13.06-24.077-4.672-35.045 19.413-25.385 44.708-46.402 73.151-60.779 29.854-15.091 62.059-22.742 95.719-22.742s65.865 7.651 95.719 22.742c28.443 14.377 53.739 35.395 73.151 60.779 8.387 10.968 6.296 26.658-4.672 35.045a24.895 24.895 0 0 1-15.168 5.142z" fill="#5F56FF" p-id="1068"></path><path d="M509.147 310.36m-25 0a25 25 0 1 0 50 0 25 25 0 1 0-50 0Z" fill="#5F56FF" p-id="1069"></path></svg>